<svg width="201" height="47" viewBox="0 0 201 47" fill="none" xmlns="http://www.w3.org/2000/svg">
<path d="M47.1355 23.5001C47.1355 26.5377 46.5372 29.5457 45.3747 32.3521C44.2122 35.1585 42.5084 37.7085 40.3604 39.8565C38.2125 42.0044 35.6625 43.7083 32.8561 44.8707C30.0496 46.0332 27.0417 46.6315 24.004 46.6315C20.9664 46.6315 17.9585 46.0332 15.152 44.8707C12.3456 43.7083 9.79561 42.0044 7.64766 39.8565C5.49971 37.7085 3.79586 35.1585 2.63339 32.3521C1.47093 29.5457 0.872619 26.5377 0.87262 23.5001L24.004 23.5001H47.1355Z" fill="#323232"/>
<path d="M0.872584 23.4999C0.872584 20.4623 1.4709 17.4543 2.63336 14.6479C3.79582 11.8415 5.49967 9.29148 7.64762 7.14353C9.79557 4.99558 12.3456 3.29173 15.152 2.12927C17.9584 0.966802 20.9664 0.36849 24.004 0.36849C27.0417 0.36849 30.0496 0.966803 32.856 2.12927C35.6625 3.29173 38.2125 4.99558 40.3604 7.14353C42.5084 9.29148 44.2122 11.8415 45.3747 14.6479C46.5371 17.4543 47.1354 20.4623 47.1354 23.4999L24.004 23.4999L0.872584 23.4999Z" fill="#ED5A25"/>
<path d="M84.7032 34H80.1695L69.9038 18.4881V34H65.37V11.3636H69.9038L80.1695 26.9079V11.3636H84.7032V34ZM88.0178 24.9649C88.0178 23.1514 88.374 21.543 89.0865 20.1396C89.8205 18.7363 90.8028 17.6569 92.0334 16.9012C93.2856 16.1456 94.6781 15.7678 96.2109 15.7678C97.5495 15.7678 98.7153 16.0377 99.7084 16.5774C100.723 17.1171 101.533 17.7972 102.137 18.6176V16.0593H106.703V34H102.137V31.3769C101.554 32.2189 100.745 32.9205 99.7084 33.4819C98.6937 34.0216 97.5171 34.2915 96.1786 34.2915C94.6673 34.2915 93.2856 33.9028 92.0334 33.1256C90.8028 32.3484 89.8205 31.2582 89.0865 29.8548C88.374 28.43 88.0178 26.8 88.0178 24.9649ZM102.137 25.0296C102.137 23.9286 101.921 22.9894 101.49 22.2122C101.058 21.4134 100.475 20.8089 99.7408 20.3987C99.0068 19.9669 98.2188 19.751 97.3768 19.751C96.5348 19.751 95.7576 19.9561 95.0451 20.3663C94.3327 20.7765 93.7498 21.381 93.2964 22.1798C92.8646 22.9571 92.6487 23.8854 92.6487 24.9649C92.6487 26.0443 92.8646 26.9943 93.2964 27.8147C93.7498 28.6135 94.3327 29.2288 95.0451 29.6605C95.7792 30.0923 96.5564 30.3082 97.3768 30.3082C98.2188 30.3082 99.0068 30.1031 99.7408 29.6929C100.475 29.2611 101.058 28.6566 101.49 27.8794C101.921 27.0806 102.137 26.1307 102.137 25.0296ZM115.665 18.65C116.248 17.8296 117.047 17.1495 118.062 16.6098C119.098 16.0485 120.274 15.7678 121.591 15.7678C123.124 15.7678 124.506 16.1456 125.737 16.9012C126.989 17.6569 127.971 18.7363 128.683 20.1396C129.418 21.5214 129.785 23.1298 129.785 24.9649C129.785 26.8 129.418 28.43 128.683 29.8548C127.971 31.2582 126.989 32.3484 125.737 33.1256C124.506 33.9028 123.124 34.2915 121.591 34.2915C120.274 34.2915 119.109 34.0216 118.094 33.4819C117.101 32.9421 116.291 32.2621 115.665 31.4417V42.5494H111.131V16.0593H115.665V18.65ZM125.154 24.9649C125.154 23.8854 124.927 22.9571 124.474 22.1798C124.042 21.381 123.459 20.7765 122.725 20.3663C122.012 19.9561 121.235 19.751 120.393 19.751C119.573 19.751 118.796 19.9669 118.062 20.3987C117.349 20.8089 116.766 21.4134 116.313 22.2122C115.881 23.011 115.665 23.9502 115.665 25.0296C115.665 26.1091 115.881 27.0482 116.313 27.847C116.766 28.6458 117.349 29.2611 118.062 29.6929C118.796 30.1031 119.573 30.3082 120.393 30.3082C121.235 30.3082 122.012 30.0923 122.725 29.6605C123.459 29.2288 124.042 28.6135 124.474 27.8147C124.927 27.0159 125.154 26.0659 125.154 24.9649Z" fill="#404040"/>
<path d="M148.462 11.396V15.0554H142.438V34H137.904V15.0554H131.881V11.396H148.462ZM154.069 13.9219C153.27 13.9219 152.601 13.6736 152.061 13.1771C151.543 12.6589 151.284 12.0221 151.284 11.2664C151.284 10.5108 151.543 9.88471 152.061 9.38816C152.601 8.87002 153.27 8.61094 154.069 8.61094C154.868 8.61094 155.526 8.87002 156.044 9.38816C156.584 9.88471 156.854 10.5108 156.854 11.2664C156.854 12.0221 156.584 12.6589 156.044 13.1771C155.526 13.6736 154.868 13.9219 154.069 13.9219ZM156.303 16.0593V34H151.769V16.0593H156.303ZM177.46 24.641C177.46 25.2887 177.417 25.8716 177.331 26.3898H164.215C164.323 27.6851 164.777 28.6998 165.575 29.4339C166.374 30.1679 167.357 30.5349 168.522 30.5349C170.206 30.5349 171.405 29.8117 172.117 28.3652H177.007C176.489 30.0923 175.496 31.5172 174.028 32.6399C172.56 33.7409 170.757 34.2915 168.62 34.2915C166.892 34.2915 165.338 33.9136 163.956 33.158C162.596 32.3808 161.527 31.2905 160.75 29.8872C159.995 28.4839 159.617 26.8647 159.617 25.0296C159.617 23.1729 159.995 21.543 160.75 20.1396C161.506 18.7363 162.564 17.6569 163.924 16.9012C165.284 16.1456 166.849 15.7678 168.62 15.7678C170.325 15.7678 171.847 16.1348 173.186 16.8689C174.546 17.6029 175.593 18.65 176.327 20.0101C177.083 21.3487 177.46 22.8923 177.46 24.641ZM172.765 23.3457C172.743 22.1798 172.322 21.2515 171.502 20.5606C170.681 19.8482 169.677 19.492 168.49 19.492C167.367 19.492 166.417 19.8374 165.64 20.5283C164.885 21.1975 164.42 22.1367 164.248 23.3457H172.765ZM190.712 15.8002C192.849 15.8002 194.576 16.4803 195.893 17.8404C197.21 19.1789 197.868 21.0572 197.868 23.4752V34H193.335V24.0905C193.335 22.6656 192.978 21.5753 192.266 20.8197C191.553 20.0425 190.582 19.6539 189.351 19.6539C188.099 19.6539 187.106 20.0425 186.372 20.8197C185.66 21.5753 185.303 22.6656 185.303 24.0905V34H180.77V16.0593H185.303V18.2938C185.908 17.5165 186.674 16.912 187.603 16.4803C188.553 16.0269 189.589 15.8002 190.712 15.8002Z" fill="#ED5A25"/>
</svg>
